<?xml version="1.0" standalone="no"?>
<!DOCTYPE svg PUBLIC "-//W3C//DTD SVG 20010904//EN"
 "http://www.w3.org/TR/2001/REC-SVG-20010904/DTD/svg10.dtd">
<svg version="1.0" xmlns="http://www.w3.org/2000/svg"
 width="3000.000000pt" height="3000.000000pt" viewBox="0 0 3000.000000 3000.000000"
 preserveAspectRatio="xMidYMid meet">

<g transform="translate(0.000000,3000.000000) scale(0.100000,-0.100000)"
fill="#000000" stroke="none">
<path d="M2110 16275 l0 -6445 6445 0 6445 0 0 6445 0 6445 -6445 0 -6445 0 0
-6445z m7285 5729 c740 -66 1420 -252 2061 -563 819 -399 1490 -953 2041
-1686 164 -218 419 -612 411 -636 -2 -5 -100 -65 -218 -132 -1342 -769 -2954
-1689 -2964 -1693 -8 -3 -23 10 -37 33 -117 194 -398 498 -576 623 -350 246
-693 363 -1103 377 -886 29 -1693 -496 -2020 -1316 -185 -465 -185 -1016 -1
-1487 243 -624 778 -1094 1437 -1264 599 -155 1226 -21 1754 374 177 132 379
354 495 544 21 34 42 62 47 62 10 0 340 -188 1728 -985 443 -254 952 -546
1133 -649 180 -103 327 -192 327 -197 0 -5 -32 -62 -72 -126 -453 -744 -1057
-1371 -1768 -1835 -777 -508 -1634 -811 -2585 -913 -204 -22 -747 -31 -957
-16 -756 56 -1445 240 -2114 566 -1216 591 -2152 1533 -2718 2733 -693 1473
-713 3279 -51 4778 478 1080 1282 1988 2308 2606 796 480 1706 764 2617 818
192 11 613 3 825 -16z"/>
<path d="M15930 16270 l0 -5520 1838 2 1837 3 5 2289 5 2290 1350 -1685 c743
-926 1568 -1957 1835 -2291 l485 -607 1843 0 1842 -1 -2 5518 -3 5517 -1837 3
-1838 2 -2 -2301 -3 -2300 -1840 2300 -1840 2301 -1837 0 -1838 0 0 -5520z"/>
<path d="M3211 8915 c-302 -57 -527 -254 -627 -549 -70 -204 -49 -442 57 -646
74 -142 180 -249 330 -329 76 -41 230 -91 280 -91 15 0 31 -4 34 -10 7 -11
158 -14 169 -3 4 4 33 13 65 19 188 39 400 177 509 332 l42 61 -92 54 c-51 30
-146 84 -210 121 l-118 68 -47 -49 c-133 -136 -328 -143 -461 -18 -106 98
-135 253 -73 380 57 115 160 179 291 180 63 0 84 -5 133 -28 32 -16 80 -51
107 -78 l50 -50 142 82 c79 45 173 99 211 121 l67 39 -29 42 c-113 165 -289
290 -476 337 -105 27 -258 34 -354 15z"/>
<path d="M9996 8915 c-321 -61 -584 -317 -651 -632 -22 -101 -19 -270 5 -372
22 -92 80 -215 135 -291 114 -155 337 -292 515 -316 28 -4 53 -11 56 -15 7
-12 169 -12 192 0 9 5 51 16 94 26 411 89 685 521 603 949 -16 87 -72 230
-112 290 -44 66 -203 218 -265 255 -174 101 -386 141 -572 106z m281 -541 c93
-45 153 -135 161 -245 6 -85 -16 -152 -69 -213 -116 -131 -327 -137 -437 -11
-48 54 -74 113 -79 180 -10 114 41 215 136 272 97 58 190 63 288 17z"/>
<path d="M11778 8915 c-321 -61 -565 -290 -649 -610 -25 -95 -29 -268 -10
-360 62 -288 265 -516 545 -611 37 -13 90 -27 117 -30 27 -4 52 -11 55 -15 7
-12 171 -11 179 1 3 6 18 10 32 10 48 0 149 31 238 75 295 143 473 451 452
783 -14 216 -98 395 -254 543 -105 100 -199 153 -339 194 -112 32 -258 40
-366 20z m272 -538 c57 -27 110 -81 141 -143 33 -68 34 -189 1 -251 -72 -137
-218 -201 -357 -158 -183 58 -265 291 -157 449 80 118 243 163 372 103z"/>
<path d="M23185 8919 c-171 -25 -322 -104 -456 -238 -84 -84 -101 -109 -146
-201 -60 -123 -82 -201 -90 -327 -26 -398 262 -773 647 -843 36 -7 73 -16 82
-21 23 -12 175 -12 182 0 3 4 29 11 57 15 76 10 202 59 285 111 181 113 319
313 365 530 19 91 14 266 -10 356 -57 219 -168 375 -353 495 -163 107 -367
151 -563 123z m247 -541 c57 -24 122 -92 151 -156 30 -67 29 -171 -1 -234 -30
-60 -89 -120 -150 -149 -64 -32 -177 -33 -244 -2 -176 80 -232 315 -108 456
97 110 223 141 352 85z"/>
<path d="M4597 8893 c-8 -13 -487 -1550 -487 -1562 0 -8 81 -11 273 -11 l273
0 40 133 40 132 252 3 251 2 31 -102 c17 -57 36 -118 41 -135 l11 -33 274 0
c151 0 274 3 274 7 0 18 -483 1549 -492 1560 -8 10 -99 13 -394 13 -210 0
-385 -3 -387 -7z m463 -684 c37 -126 64 -231 62 -234 -3 -3 -66 -5 -140 -5
-133 0 -134 0 -129 22 35 133 132 456 136 452 3 -3 35 -108 71 -235z"/>
<path d="M6037 8894 c-4 -4 -7 -360 -7 -791 l0 -783 260 0 260 0 0 230 0 230
88 0 87 0 115 -228 115 -227 288 -3 c158 -1 287 0 287 4 0 3 -64 114 -141 246
-78 132 -143 248 -145 257 -2 10 19 32 59 62 376 277 284 832 -163 981 -63 21
-83 22 -580 26 -284 2 -519 0 -523 -4z m932 -488 c59 -56 65 -126 16 -184 -40
-48 -65 -53 -255 -50 l-175 3 -3 119 c-1 66 0 126 3 134 4 11 41 13 194 10
l190 -3 30 -29z"/>
<path d="M7687 8893 c-4 -3 -7 -107 -7 -229 l0 -224 245 -2 246 -3 2 -555 2
-555 295 0 295 0 2 555 2 555 246 3 245 2 -2 228 -3 227 -781 3 c-429 1 -784
-1 -787 -5z"/>
<path d="M12905 8888 c-3 -7 -4 -362 -3 -788 l3 -775 257 -3 258 -2 2 327 3
328 265 -327 265 -327 260 2 260 2 0 785 0 785 -257 3 -258 2 0 -325 c0 -179
-3 -325 -7 -324 -5 0 -126 146 -271 325 l-263 324 -255 0 c-194 0 -256 -3
-259 -12z"/>
<path d="M15547 8893 c-4 -3 -7 -359 -7 -790 l0 -783 260 0 260 0 2 326 3 326
265 -326 264 -326 258 0 258 0 0 790 0 790 -257 -2 -258 -3 -5 -322 -5 -322
-245 302 c-135 166 -255 312 -267 324 -22 23 -25 23 -271 23 -137 0 -252 -3
-255 -7z"/>
<path d="M17347 8893 c-4 -3 -7 -359 -7 -790 l0 -783 685 0 685 0 0 210 0 210
-425 0 -425 0 0 85 0 85 360 0 360 0 -2 183 -3 182 -357 3 -358 2 0 80 0 80
425 0 425 0 0 230 0 230 -678 0 c-373 0 -682 -3 -685 -7z"/>
<path d="M18890 8670 l0 -230 245 0 245 0 0 -560 0 -560 295 0 295 0 2 558 3
557 243 3 242 2 0 230 0 230 -785 0 -785 0 0 -230z"/>
<path d="M20600 8886 c0 -8 4 -37 10 -63 5 -26 71 -365 145 -753 75 -388 139
-715 142 -727 5 -23 6 -23 218 -23 l212 0 93 210 c51 116 97 207 100 203 4 -4
45 -93 90 -198 46 -104 87 -196 93 -202 7 -10 64 -13 223 -13 118 0 214 1 214
3 0 1 67 353 149 782 82 429 146 783 142 788 -4 4 -122 6 -261 5 l-254 -3 -65
-337 c-36 -186 -68 -338 -71 -338 -3 0 -61 136 -130 301 -69 165 -128 302
-131 305 -4 2 -62 -132 -130 -297 -68 -165 -126 -302 -129 -304 -4 -2 -22 73
-40 168 -18 95 -47 246 -65 337 l-31 165 -262 3 c-225 2 -262 0 -262 -12z"/>
<path d="M24287 8894 c-4 -4 -7 -360 -7 -791 l0 -783 260 0 260 0 0 230 0 230
88 0 87 0 115 -228 115 -227 288 -3 c158 -1 287 0 287 4 0 3 -64 114 -141 246
-78 132 -143 248 -145 257 -2 10 19 32 59 62 376 276 283 832 -163 981 -63 21
-83 22 -580 26 -284 2 -519 0 -523 -4z m932 -488 c59 -56 65 -126 16 -184 -40
-48 -65 -53 -255 -50 l-175 3 -3 119 c-1 66 0 126 3 134 4 11 40 13 194 10
l190 -3 30 -29z"/>
<path d="M25960 8893 c0 -5 0 -359 0 -788 l0 -780 260 -3 260 -2 2 291 3 291
195 -291 195 -290 333 -1 c182 0 332 2 332 4 0 3 -135 187 -300 411 -165 223
-300 407 -300 410 0 3 135 171 300 375 165 203 300 372 300 375 0 3 -148 5
-330 5 l-330 0 -57 -73 c-32 -40 -119 -152 -193 -250 -74 -97 -138 -177 -142
-177 -4 0 -9 111 -10 248 l-3 247 -257 3 c-142 1 -258 -1 -258 -5z"/>
</g>
</svg>
